<svg width="183" height="48" viewBox="0 0 183 48" fill="none" xmlns="http://www.w3.org/2000/svg">
<path d="M8 39C8 37.6739 8.52678 36.4021 9.46447 35.4645C10.4021 34.5268 11.6739 34 13 34H40M8 39C8 40.3261 8.52678 41.5979 9.46447 42.5355C10.4021 43.4732 11.6739 44 13 44H40V4H13C11.6739 4 10.4021 4.52678 9.46447 5.46447C8.52678 6.40215 8 7.67392 8 9V39Z" stroke="#1C2A3A" stroke-width="4" stroke-linecap="round" stroke-linejoin="round"/>
<g clip-path="url(#clip0_114_159)">
<path d="M24 15.6666L27.3333 19L24 22.3333M27.3333 19H20.6667M15.6667 19C15.6667 14.3976 19.3976 10.6666 24 10.6666C28.6024 10.6666 32.3333 14.3976 32.3333 19C32.3333 23.6024 28.6024 27.3333 24 27.3333C19.3976 27.3333 15.6667 23.6024 15.6667 19Z" stroke="#1C2A3A" stroke-width="1.6" stroke-linecap="round" stroke-linejoin="round"/>
</g>
<path d="M51.4347 27V12.4545H56.8892C58.0066 12.4545 58.9441 12.6629 59.7017 13.0795C60.464 13.4962 61.0393 14.0691 61.4276 14.7983C61.8205 15.5227 62.017 16.3466 62.017 17.2699C62.017 18.2027 61.8205 19.0312 61.4276 19.7557C61.0346 20.4801 60.4545 21.0507 59.6875 21.4673C58.9205 21.8793 57.9759 22.0852 56.8537 22.0852H53.2386V19.919H56.4986C57.152 19.919 57.687 19.8054 58.1037 19.5781C58.5204 19.3509 58.8281 19.0384 59.027 18.6406C59.2306 18.2429 59.3324 17.786 59.3324 17.2699C59.3324 16.7538 59.2306 16.2992 59.027 15.9062C58.8281 15.5133 58.518 15.2079 58.0966 14.9901C57.6799 14.7675 57.1425 14.6562 56.4844 14.6562H54.0696V27H51.4347ZM67.136 27.2202C66.4447 27.2202 65.8221 27.0971 65.2681 26.8509C64.7189 26.5999 64.2833 26.2306 63.9613 25.7429C63.6441 25.2552 63.4854 24.6539 63.4854 23.9389C63.4854 23.3234 63.5991 22.8144 63.8263 22.4119C64.0536 22.0095 64.3638 21.6875 64.7567 21.446C65.1497 21.2045 65.5924 21.0223 66.0849 20.8991C66.582 20.7713 67.0958 20.679 67.6261 20.6222C68.2653 20.5559 68.7837 20.4967 69.1815 20.4446C69.5792 20.3878 69.868 20.3026 70.0479 20.1889C70.2326 20.0705 70.3249 19.8883 70.3249 19.642V19.5994C70.3249 19.0644 70.1663 18.6501 69.8491 18.3565C69.5318 18.063 69.0749 17.9162 68.4783 17.9162C67.8486 17.9162 67.3491 18.0535 66.9798 18.3281C66.6152 18.6027 66.369 18.9271 66.2411 19.3011L63.8406 18.9602C64.0299 18.2973 64.3424 17.7434 64.7781 17.2983C65.2137 16.8485 65.7463 16.5123 66.3761 16.2898C67.0058 16.0625 67.7018 15.9489 68.4641 15.9489C68.9897 15.9489 69.5129 16.0104 70.0337 16.1335C70.5546 16.2566 71.0304 16.4602 71.4613 16.7443C71.8922 17.0237 72.2378 17.4048 72.4982 17.8878C72.7634 18.3707 72.896 18.9744 72.896 19.6989V27H70.4244V25.5014H70.3391C70.1829 25.8045 69.9627 26.0885 69.6786 26.3537C69.3993 26.6141 69.0465 26.8248 68.6204 26.9858C68.199 27.142 67.7042 27.2202 67.136 27.2202ZM67.8036 25.331C68.3197 25.331 68.7672 25.2292 69.146 25.0256C69.5247 24.8172 69.8159 24.5426 70.0195 24.2017C70.2279 23.8608 70.332 23.4891 70.332 23.0866V21.8011C70.2515 21.8674 70.1142 21.929 69.9201 21.9858C69.7307 22.0426 69.5176 22.0923 69.2809 22.1349C69.0442 22.1776 68.8098 22.2154 68.5778 22.2486C68.3458 22.2817 68.1445 22.3101 67.9741 22.3338C67.5906 22.3859 67.2473 22.4711 66.9442 22.5895C66.6412 22.7079 66.4021 22.8736 66.2269 23.0866C66.0517 23.295 65.9641 23.5649 65.9641 23.8963C65.9641 24.3698 66.137 24.7273 66.4826 24.9688C66.8282 25.2102 67.2686 25.331 67.8036 25.331ZM84.1033 18.9744L81.7596 19.2301C81.6933 18.9934 81.5773 18.7708 81.4116 18.5625C81.2506 18.3542 81.0328 18.1861 80.7582 18.0582C80.4835 17.9304 80.1474 17.8665 79.7496 17.8665C79.2146 17.8665 78.7648 17.9825 78.4002 18.2145C78.0404 18.4465 77.8628 18.7472 77.8675 19.1165C77.8628 19.4337 77.9788 19.6918 78.2156 19.8906C78.457 20.0895 78.8548 20.2528 79.4087 20.3807L81.2695 20.7784C82.3017 21.0009 83.0688 21.3537 83.5707 21.8366C84.0773 22.3196 84.333 22.9517 84.3377 23.733C84.333 24.4195 84.1317 25.0256 83.734 25.5511C83.341 26.072 82.7942 26.4792 82.0934 26.7727C81.3926 27.0663 80.5877 27.2131 79.6786 27.2131C78.3434 27.2131 77.2686 26.9337 76.4542 26.375C75.6398 25.8116 75.1545 25.0279 74.9982 24.0241L77.5053 23.7827C77.619 24.2751 77.8604 24.6468 78.2298 24.8977C78.5991 25.1487 79.0797 25.2741 79.6715 25.2741C80.2823 25.2741 80.7724 25.1487 81.1417 24.8977C81.5157 24.6468 81.7028 24.3366 81.7028 23.9673C81.7028 23.6548 81.582 23.3968 81.3406 23.1932C81.1038 22.9896 80.7345 22.8333 80.2326 22.7244L78.3718 22.3338C77.3254 22.116 76.5513 21.7491 76.0494 21.233C75.5475 20.7121 75.2989 20.054 75.3036 19.2585C75.2989 18.5862 75.4812 18.0038 75.8505 17.5114C76.2246 17.0142 76.743 16.6307 77.4059 16.3608C78.0735 16.0862 78.8429 15.9489 79.7141 15.9489C80.9925 15.9489 81.9987 16.2211 82.7326 16.7656C83.4712 17.3101 83.9281 18.0464 84.1033 18.9744ZM95.0799 18.9744L92.7362 19.2301C92.6699 18.9934 92.5539 18.7708 92.3881 18.5625C92.2272 18.3542 92.0094 18.1861 91.7347 18.0582C91.4601 17.9304 91.1239 17.8665 90.7262 17.8665C90.1912 17.8665 89.7414 17.9825 89.3768 18.2145C89.0169 18.4465 88.8394 18.7472 88.8441 19.1165C88.8394 19.4337 88.9554 19.6918 89.1921 19.8906C89.4336 20.0895 89.8313 20.2528 90.3853 20.3807L92.2461 20.7784C93.2783 21.0009 94.0453 21.3537 94.5472 21.8366C95.0539 22.3196 95.3095 22.9517 95.3143 23.733C95.3095 24.4195 95.1083 25.0256 94.7106 25.5511C94.3176 26.072 93.7707 26.4792 93.07 26.7727C92.3692 27.0663 91.5643 27.2131 90.6552 27.2131C89.32 27.2131 88.2451 26.9337 87.4308 26.375C86.6164 25.8116 86.131 25.0279 85.9748 24.0241L88.4819 23.7827C88.5955 24.2751 88.837 24.6468 89.2063 24.8977C89.5756 25.1487 90.0562 25.2741 90.6481 25.2741C91.2589 25.2741 91.7489 25.1487 92.1183 24.8977C92.4923 24.6468 92.6793 24.3366 92.6793 23.9673C92.6793 23.6548 92.5586 23.3968 92.3171 23.1932C92.0804 22.9896 91.7111 22.8333 91.2092 22.7244L89.3484 22.3338C88.302 22.116 87.5278 21.7491 87.0259 21.233C86.524 20.7121 86.2754 20.054 86.2802 19.2585C86.2754 18.5862 86.4577 18.0038 86.8271 17.5114C87.2011 17.0142 87.7196 16.6307 88.3825 16.3608C89.0501 16.0862 89.8195 15.9489 90.6907 15.9489C91.9691 15.9489 92.9753 16.2211 93.7092 16.7656C94.4478 17.3101 94.9047 18.0464 95.0799 18.9744ZM100.574 27.2202C99.8822 27.2202 99.2596 27.0971 98.7056 26.8509C98.1564 26.5999 97.7208 26.2306 97.3988 25.7429C97.0816 25.2552 96.9229 24.6539 96.9229 23.9389C96.9229 23.3234 97.0366 22.8144 97.2638 22.4119C97.4911 22.0095 97.8013 21.6875 98.1942 21.446C98.5872 21.2045 99.0299 21.0223 99.5224 20.8991C100.02 20.7713 100.533 20.679 101.064 20.6222C101.703 20.5559 102.221 20.4967 102.619 20.4446C103.017 20.3878 103.306 20.3026 103.485 20.1889C103.67 20.0705 103.762 19.8883 103.762 19.642V19.5994C103.762 19.0644 103.604 18.6501 103.287 18.3565C102.969 18.063 102.512 17.9162 101.916 17.9162C101.286 17.9162 100.787 18.0535 100.417 18.3281C100.053 18.6027 99.8065 18.9271 99.6786 19.3011L97.2781 18.9602C97.4674 18.2973 97.7799 17.7434 98.2156 17.2983C98.6512 16.8485 99.1838 16.5123 99.8136 16.2898C100.443 16.0625 101.139 15.9489 101.902 15.9489C102.427 15.9489 102.95 16.0104 103.471 16.1335C103.992 16.2566 104.468 16.4602 104.899 16.7443C105.33 17.0237 105.675 17.4048 105.936 17.8878C106.201 18.3707 106.333 18.9744 106.333 19.6989V27H103.862V25.5014H103.777C103.62 25.8045 103.4 26.0885 103.116 26.3537C102.837 26.6141 102.484 26.8248 102.058 26.9858C101.636 27.142 101.142 27.2202 100.574 27.2202ZM101.241 25.331C101.757 25.331 102.205 25.2292 102.583 25.0256C102.962 24.8172 103.253 24.5426 103.457 24.2017C103.665 23.8608 103.77 23.4891 103.77 23.0866V21.8011C103.689 21.8674 103.552 21.929 103.358 21.9858C103.168 22.0426 102.955 22.0923 102.718 22.1349C102.482 22.1776 102.247 22.2154 102.015 22.2486C101.783 22.2817 101.582 22.3101 101.412 22.3338C101.028 22.3859 100.685 22.4711 100.382 22.5895C100.079 22.7079 99.8396 22.8736 99.6644 23.0866C99.4892 23.295 99.4016 23.5649 99.4016 23.8963C99.4016 24.3698 99.5745 24.7273 99.9201 24.9688C100.266 25.2102 100.706 25.331 101.241 25.331ZM110.9 27H108.088L113.208 12.4545H116.461L121.589 27H118.777L114.892 15.4375H114.778L110.9 27ZM110.993 21.2969H118.663V23.4134H110.993V21.2969ZM127.108 27.1918C126.251 27.1918 125.484 26.9716 124.806 26.5312C124.129 26.0909 123.594 25.4517 123.201 24.6136C122.808 23.7756 122.612 22.7576 122.612 21.5597C122.612 20.3475 122.811 19.3248 123.208 18.4915C123.611 17.6534 124.153 17.0213 124.835 16.5952C125.517 16.1643 126.277 15.9489 127.115 15.9489C127.754 15.9489 128.279 16.0578 128.691 16.2756C129.103 16.4886 129.43 16.7467 129.672 17.0497C129.913 17.348 130.1 17.6297 130.233 17.8949H130.339V12.4545H132.917V27H130.389V25.2812H130.233C130.1 25.5464 129.908 25.8281 129.657 26.1264C129.406 26.42 129.075 26.6709 128.663 26.8793C128.251 27.0876 127.733 27.1918 127.108 27.1918ZM127.825 25.0824C128.369 25.0824 128.833 24.9356 129.217 24.642C129.6 24.3437 129.892 23.9295 130.091 23.3991C130.289 22.8688 130.389 22.2509 130.389 21.5455C130.389 20.84 130.289 20.2268 130.091 19.706C129.896 19.1851 129.608 18.7803 129.224 18.4915C128.845 18.2027 128.379 18.0582 127.825 18.0582C127.252 18.0582 126.774 18.2074 126.39 18.5057C126.007 18.804 125.718 19.2159 125.524 19.7415C125.33 20.267 125.233 20.8684 125.233 21.5455C125.233 22.2273 125.33 22.8357 125.524 23.3707C125.723 23.901 126.014 24.3201 126.397 24.6278C126.786 24.9309 127.261 25.0824 127.825 25.0824ZM135.657 27V16.0909H138.228V27H135.657ZM136.95 14.5426C136.542 14.5426 136.192 14.4077 135.898 14.1378C135.605 13.8632 135.458 13.5341 135.458 13.1506C135.458 12.7623 135.605 12.4332 135.898 12.1634C136.192 11.8887 136.542 11.7514 136.95 11.7514C137.362 11.7514 137.712 11.8887 138.001 12.1634C138.294 12.4332 138.441 12.7623 138.441 13.1506C138.441 13.5341 138.294 13.8632 138.001 14.1378C137.712 14.4077 137.362 14.5426 136.95 14.5426ZM144.011 27.2202C143.32 27.2202 142.697 27.0971 142.143 26.8509C141.594 26.5999 141.158 26.2306 140.836 25.7429C140.519 25.2552 140.36 24.6539 140.36 23.9389C140.36 23.3234 140.474 22.8144 140.701 22.4119C140.929 22.0095 141.239 21.6875 141.632 21.446C142.025 21.2045 142.467 21.0223 142.96 20.8991C143.457 20.7713 143.971 20.679 144.501 20.6222C145.14 20.5559 145.659 20.4967 146.056 20.4446C146.454 20.3878 146.743 20.3026 146.923 20.1889C147.108 20.0705 147.2 19.8883 147.2 19.642V19.5994C147.2 19.0644 147.041 18.6501 146.724 18.3565C146.407 18.063 145.95 17.9162 145.353 17.9162C144.724 17.9162 144.224 18.0535 143.855 18.3281C143.49 18.6027 143.244 18.9271 143.116 19.3011L140.716 18.9602C140.905 18.2973 141.217 17.7434 141.653 17.2983C142.089 16.8485 142.621 16.5123 143.251 16.2898C143.881 16.0625 144.577 15.9489 145.339 15.9489C145.865 15.9489 146.388 16.0104 146.909 16.1335C147.43 16.2566 147.905 16.4602 148.336 16.7443C148.767 17.0237 149.113 17.4048 149.373 17.8878C149.638 18.3707 149.771 18.9744 149.771 19.6989V27H147.299V25.5014H147.214C147.058 25.8045 146.838 26.0885 146.554 26.3537C146.274 26.6141 145.922 26.8248 145.495 26.9858C145.074 27.142 144.579 27.2202 144.011 27.2202ZM144.679 25.331C145.195 25.331 145.642 25.2292 146.021 25.0256C146.4 24.8172 146.691 24.5426 146.895 24.2017C147.103 23.8608 147.207 23.4891 147.207 23.0866V21.8011C147.127 21.8674 146.989 21.929 146.795 21.9858C146.606 22.0426 146.393 22.0923 146.156 22.1349C145.919 22.1776 145.685 22.2154 145.453 22.2486C145.221 22.2817 145.02 22.3101 144.849 22.3338C144.466 22.3859 144.122 22.4711 143.819 22.5895C143.516 22.7079 143.277 22.8736 143.102 23.0866C142.927 23.295 142.839 23.5649 142.839 23.8963C142.839 24.3698 143.012 24.7273 143.358 24.9688C143.703 25.2102 144.144 25.331 144.679 25.331ZM154.927 20.608V27H152.356V16.0909H154.814V17.9446H154.941C155.192 17.3338 155.592 16.8485 156.142 16.4886C156.696 16.1288 157.38 15.9489 158.194 15.9489C158.947 15.9489 159.603 16.1098 160.162 16.4318C160.725 16.7538 161.161 17.2202 161.468 17.831C161.781 18.4418 161.935 19.1828 161.93 20.054V27H159.359V20.4517C159.359 19.7225 159.17 19.152 158.791 18.7401C158.417 18.3281 157.898 18.1222 157.235 18.1222C156.786 18.1222 156.386 18.2216 156.035 18.4205C155.69 18.6146 155.417 18.8963 155.218 19.2656C155.024 19.6349 154.927 20.0824 154.927 20.608ZM169.991 16.0909V18.0795H163.72V16.0909H169.991ZM165.268 13.4773H167.839V23.7188C167.839 24.0644 167.891 24.3295 167.995 24.5142C168.104 24.6941 168.246 24.8172 168.422 24.8835C168.597 24.9498 168.791 24.983 169.004 24.983C169.165 24.983 169.312 24.9711 169.444 24.9474C169.582 24.9238 169.686 24.9025 169.757 24.8835L170.19 26.8935C170.053 26.9408 169.856 26.9929 169.6 27.0497C169.35 27.1065 169.042 27.1397 168.677 27.1491C168.033 27.1681 167.453 27.071 166.937 26.858C166.421 26.6402 166.011 26.304 165.708 25.8494C165.41 25.3949 165.263 24.8267 165.268 24.1449V13.4773ZM176.854 27.2131C175.76 27.2131 174.815 26.9858 174.02 26.5312C173.229 26.072 172.621 25.4233 172.195 24.5852C171.768 23.7424 171.555 22.7505 171.555 21.6094C171.555 20.4872 171.768 19.5024 172.195 18.6548C172.625 17.8026 173.227 17.1397 173.999 16.6662C174.77 16.188 175.677 15.9489 176.719 15.9489C177.391 15.9489 178.026 16.0578 178.622 16.2756C179.223 16.4886 179.754 16.8201 180.213 17.2699C180.677 17.7197 181.042 18.2926 181.307 18.9886C181.572 19.6799 181.705 20.5038 181.705 21.4602V22.2486H172.763V20.5156H179.24C179.235 20.0232 179.129 19.5852 178.92 19.2017C178.712 18.8134 178.421 18.508 178.047 18.2855C177.678 18.063 177.247 17.9517 176.754 17.9517C176.229 17.9517 175.767 18.0795 175.369 18.3352C174.972 18.5862 174.661 18.9176 174.439 19.3295C174.221 19.7367 174.11 20.1842 174.105 20.6719V22.1847C174.105 22.8191 174.221 23.3636 174.453 23.8182C174.685 24.268 175.009 24.6136 175.426 24.8551C175.843 25.0919 176.33 25.2102 176.889 25.2102C177.263 25.2102 177.602 25.1581 177.905 25.054C178.208 24.9451 178.471 24.7865 178.693 24.5781C178.916 24.3698 179.084 24.1117 179.197 23.804L181.598 24.0739C181.446 24.7083 181.158 25.2623 180.732 25.7358C180.31 26.2045 179.77 26.5691 179.112 26.8295C178.454 27.0852 177.701 27.2131 176.854 27.2131Z" fill="#1C2A3A"/>
<defs>
<clipPath id="clip0_114_159">
<rect width="20" height="20" fill="white" transform="matrix(-1 0 0 -1 34 29)"/>
</clipPath>
</defs>
</svg>
